<?xml version="1.0" standalone="no"?>
<!DOCTYPE svg PUBLIC "-//W3C//DTD SVG 20010904//EN"
 "http://www.w3.org/TR/2001/REC-SVG-20010904/DTD/svg10.dtd">
<svg version="1.0" xmlns="http://www.w3.org/2000/svg"
 width="200.000000pt" height="200.000000pt" viewBox="0 0 200.000000 200.000000"
 preserveAspectRatio="xMidYMid meet">

<g transform="translate(0.000000,200.000000) scale(0.100000,-0.100000)"
fill="#000000" stroke="none">
<path d="M260 1438 c-46 -79 -84 -145 -86 -148 -1 -3 35 -71 81 -150 l83 -145
533 0 533 0 83 144 84 144 -84 146 -84 146 -179 3 -179 2 -83 -145 -84 -145
-176 0 -177 0 -81 142 c-44 78 -85 143 -91 145 -6 2 -48 -60 -93 -139z"/>
<path d="M160 304 l0 -207 67 6 c59 4 71 9 95 36 28 31 28 33 28 161 0 79 -5
139 -12 155 -17 37 -57 55 -123 55 l-55 0 0 -206z m118 138 c15 -20 17 -244 2
-273 -6 -11 -21 -19 -35 -19 l-25 0 0 161 0 160 23 -6 c12 -4 28 -14 35 -23z"/>
<path d="M410 306 l0 -206 30 0 30 0 0 65 0 65 31 0 c90 0 134 167 65 247 -20
23 -33 27 -90 31 l-66 4 0 -206z m108 142 c7 -7 12 -40 12 -79 0 -59 -3 -70
-22 -83 -12 -9 -26 -16 -30 -16 -5 0 -8 43 -8 95 0 85 2 95 18 95 10 0 23 -5
30 -12z"/>
<path d="M642 308 l3 -203 28 -3 27 -3 1 153 1 153 30 -123 c27 -112 32 -123
51 -120 18 3 24 19 46 118 l26 115 3 -147 3 -148 29 0 30 0 0 205 0 205 -39 0
c-40 0 -40 0 -56 -57 -10 -32 -23 -87 -30 -123 -9 -50 -14 -59 -18 -40 -3 14
-16 69 -28 123 l-23 97 -43 0 -43 0 2 -202z"/>
<path d="M990 305 l0 -205 30 0 30 0 0 65 c0 63 1 65 26 65 63 0 94 47 94 145
0 37 -5 75 -10 86 -16 29 -64 49 -120 49 l-50 0 0 -205z m108 142 c7 -6 12
-34 12 -73 0 -51 -4 -68 -20 -84 -11 -11 -24 -20 -30 -20 -6 0 -10 40 -10 100
0 90 2 99 18 93 9 -3 23 -10 30 -16z"/>
<path d="M1190 485 c0 -22 4 -25 35 -25 l35 0 0 -180 0 -180 30 0 30 0 0 180
0 180 35 0 c31 0 35 3 35 25 l0 25 -100 0 -100 0 0 -25z"/>
<path d="M1443 488 c-47 -52 -36 -105 43 -202 44 -56 54 -75 52 -100 -3 -27
-7 -31 -33 -31 -28 0 -30 3 -33 38 -3 35 -6 38 -30 35 -32 -4 -40 -34 -22 -78
20 -47 84 -64 139 -35 33 16 41 33 41 81 0 43 -11 65 -65 129 -54 64 -68 91
-60 116 5 15 14 19 33 17 22 -2 29 -10 36 -40 8 -30 14 -38 33 -38 20 0 23 5
23 40 0 57 -34 90 -93 90 -32 0 -49 -6 -64 -22z"/>
<path d="M1660 304 l0 -205 28 3 c26 3 27 6 30 66 3 54 5 62 23 62 36 0 77 28
88 61 15 42 14 131 -1 164 -16 36 -57 55 -118 55 l-50 0 0 -206z m108 138 c6
-9 12 -42 12 -74 0 -45 -5 -63 -20 -78 -11 -11 -24 -20 -30 -20 -6 0 -10 40
-10 100 0 90 2 99 18 93 9 -3 23 -13 30 -21z"/>
</g>
</svg>
